<svg width="50" height="50" viewBox="0 0 50 50" fill="none" xmlns="http://www.w3.org/2000/svg">
<path d="M30.9914 3.80105C30.3893 2.64676 29.5178 1.68699 28.4654 1.01935C27.413 0.351704 26.2174 0 25 0C23.7826 0 22.587 0.351704 21.5346 1.01935C20.4822 1.68699 19.6107 2.64676 19.0086 3.80105L0.863719 39.0682C0.287535 40.175 -0.0103353 41.4282 0.000273802 42.7009C0.0108829 43.9736 0.329594 45.2207 0.924132 46.3158C1.5274 47.4456 2.3937 48.3814 3.43524 49.0283C4.47679 49.6753 5.65658 50.0104 6.85508 49.9998H43.1449C44.3434 50.0104 45.5232 49.6753 46.5648 49.0283C47.6063 48.3814 48.4726 47.4456 49.0759 46.3158C49.6704 45.2207 49.9891 43.9736 49.9997 42.7009C50.0103 41.4282 49.7125 40.175 49.1363 39.0682L30.9914 3.80105ZM25 40.9091C24.588 40.9091 24.1852 40.7758 23.8426 40.5261C23.5 40.2764 23.233 39.9214 23.0753 39.5061C22.9177 39.0909 22.8764 38.6339 22.9568 38.1931C23.0372 37.7522 23.2356 37.3473 23.5269 37.0294C23.8183 36.7116 24.1895 36.4951 24.5936 36.4074C24.9977 36.3197 25.4166 36.3648 25.7972 36.5368C26.1779 36.7088 26.5032 37.0001 26.7321 37.3738C26.961 37.7476 27.0832 38.1869 27.0832 38.6364C27.0832 39.2392 26.8637 39.8172 26.4731 40.2435C26.0824 40.6697 25.5525 40.9091 25 40.9091ZM27.0832 29.5458C27.0832 30.1485 26.8637 30.7266 26.4731 31.1528C26.0824 31.579 25.5525 31.8184 25 31.8184C24.4475 31.8184 23.9176 31.579 23.5269 31.1528C23.1363 30.7266 22.9168 30.1485 22.9168 29.5458V15.9098C22.9168 15.3071 23.1363 14.729 23.5269 14.3028C23.9176 13.8766 24.4475 13.6371 25 13.6371C25.5525 13.6371 26.0824 13.8766 26.4731 14.3028C26.8637 14.729 27.0832 15.3071 27.0832 15.9098V29.5458Z" fill="#FFFCF1"/>
</svg>
