<svg width="20" height="20" viewBox="0 0 20 20" fill="none" xmlns="http://www.w3.org/2000/svg">
<path d="M15.5129 0C16.7041 0 17.8466 0.473031 18.6891 1.31507C19.5302 2.15855 20.0017 3.30147 20 4.49247C19.9983 5.68347 19.5236 6.82505 18.6801 7.66615L11.6897 14.655L7.88896 18.4639L6.62206 19.7305C6.53884 19.8154 6.43961 19.8829 6.3301 19.9292C6.22059 19.9754 6.10299 19.9995 5.98411 20H0.898515C0.660214 20 0.431674 19.9054 0.263169 19.7369C0.0946649 19.5684 0 19.3399 0 19.1017V14.0172C0.00049351 13.8984 0.0245734 13.7808 0.0708439 13.6713C0.117114 13.5618 0.184656 13.4626 0.269555 13.3794L12.3366 1.31507C13.1791 0.473031 14.3216 0 15.5129 0Z" fill="#D9D9D9"/>
</svg>
