<svg width="51" height="43" viewBox="0 0 51 43" fill="none" xmlns="http://www.w3.org/2000/svg">
<path d="M21.7496 0.75C11.4996 2.5 2.99961 10.75 1.24961 21C0.499609 25.75 0.99961 30.5 2.74961 34.75C2.74961 35 2.99961 35.25 3.24961 35.5L3.49961 35.75L3.99961 36.25C4.24961 36.25 4.49961 36.5 4.74961 36.5C4.99961 36.5 5.49961 36.5 5.74961 36.25L14.7496 32.5C14.9996 32.25 15.2496 32.25 15.4996 32C15.4996 32 15.4996 31.75 15.7496 31.75C15.7496 31.5 15.9996 31.5 15.9996 31.25V29.5C16.2496 28.25 15.9996 27.25 15.9996 26.25C15.9996 20.25 20.4996 15.5 25.9996 15.5C28.7496 15.5 31.2496 16.5 32.9996 18.5C34.9996 20.5 35.9996 23.25 35.9996 26C35.9996 27 35.7496 28 35.4996 29V30.75C35.4996 31 35.7496 31 35.7496 31.25C35.7496 31.25 35.7496 31.5 35.9996 31.5C36.2496 31.75 36.4996 32 36.7496 32L45.7496 35.75C45.9996 36 46.4996 36 46.7496 36C46.9996 36 47.2496 36 47.4996 35.75C47.7496 35.75 47.9996 35.5 47.9996 35.25L48.2496 35C48.4996 34.75 48.4996 34.5 48.7496 34.25C49.9996 31.25 50.4996 28.25 50.4996 25C50.4996 18.25 47.9996 12 43.2496 7.25C37.9996 2 29.7496 -0.5 21.7496 0.75Z" fill="#FFFAF0"/>
<path d="M26 43C28.75 43 31 40.75 31 38C31 37 30.75 36.25 30.25 35.5L29.25 30.5L28.75 28C28.5 27.25 28.5 26.25 28.25 25.5C28.25 24.25 27.25 23.25 26 23.25C24.5 23.25 23.5 24.25 23.25 25.5C23.25 26.25 23 27.25 22.75 28L22.25 30.5L21.25 35.5C20.75 36.25 20.5 37.25 20.5 38C21 40.75 23.25 43 26 43Z" fill="#FFFAF0"/>
</svg>
