<svg width="46" height="46" viewBox="0 0 46 46" fill="none" xmlns="http://www.w3.org/2000/svg">
<g clip-path="url(#clip0_48_3936)">
<path d="M6.19998 38.4001H39.8C41.2852 38.4001 42.7096 37.8101 43.7598 36.7598C44.81 35.7096 45.4 34.2853 45.4 32.8001V10.4C45.4 8.91484 44.81 7.49045 43.7598 6.44025C42.7096 5.39005 41.2852 4.80005 39.8 4.80005H6.19998C4.71476 4.80005 3.29038 5.39005 2.24018 6.44025C1.18997 7.49045 0.599976 8.91484 0.599976 10.4V32.8001C0.599976 34.2853 1.18997 35.7096 2.24018 36.7598C3.29038 37.8101 4.71476 38.4001 6.19998 38.4001Z" fill="#61A8A7"/>
<path fill-rule="evenodd" clip-rule="evenodd" d="M15.01 43.5711C15.2726 43.8337 15.6287 43.9812 16 43.9812H30C30.3713 43.9812 30.7274 43.8337 30.9899 43.5711C31.2525 43.3086 31.4 42.9525 31.4 42.5812C31.4 42.2099 31.2525 41.8538 30.9899 41.5912C30.7274 41.3287 30.3713 41.1812 30 41.1812H16C15.6287 41.1812 15.2726 41.3287 15.01 41.5912C14.7475 41.8538 14.6 42.2099 14.6 42.5812C14.6 42.9525 14.7475 43.3086 15.01 43.5711Z" fill="#61A8A7"/>
<path d="M17.4 44.0001L28.6 44.0001V35.6001L17.4 35.6002L17.4 37.0001V42.6001L17.4 44.0001Z" fill="#61A8A7"/>
<circle cx="23" cy="32.8001" r="1.4" fill="#D4E3DE"/>
</g>
<defs>
<clipPath id="clip0_48_3936">
<rect width="44.8" height="44.8" fill="white" transform="translate(0.599976 0.600098)"/>
</clipPath>
</defs>
</svg>
