<svg width="20" height="20" viewBox="0 0 20 20" fill="none" xmlns="http://www.w3.org/2000/svg">
<path d="M19.2665 2.61867L11.8345 10.0507L18.4105 17.3813C18.6534 17.6328 18.7878 17.9696 18.7847 18.3192C18.7817 18.6688 18.6415 19.0032 18.3943 19.2504C18.147 19.4976 17.8126 19.6379 17.463 19.6409C17.1134 19.6439 16.7766 19.5095 16.5252 19.2667L9.94917 11.936L2.6185 19.2667C2.36703 19.5095 2.03023 19.6439 1.68063 19.6409C1.33104 19.6379 0.996621 19.4976 0.74941 19.2504C0.5022 19.0032 0.361975 18.6688 0.358937 18.3192C0.355899 17.9696 0.490291 17.6328 0.733168 17.3813L8.16517 9.94934L1.58917 2.61867C1.34629 2.3672 1.2119 2.0304 1.21494 1.6808C1.21797 1.33121 1.3582 0.996789 1.60541 0.749578C1.85262 0.502367 2.18704 0.362143 2.53663 0.359105C2.88623 0.356067 3.22303 0.490459 3.4745 0.733336L10.0505 8.064L17.3812 0.733336C17.6326 0.490459 17.9694 0.356067 18.319 0.359105C18.6686 0.362143 19.003 0.502367 19.2503 0.749578C19.4975 0.996789 19.6377 1.33121 19.6407 1.6808C19.6438 2.0304 19.5094 2.3672 19.2665 2.61867Z" fill="#F9F9F9"/>
</svg>
