<svg width="18" height="22" viewBox="0 0 18 22" fill="none" xmlns="http://www.w3.org/2000/svg">
<path d="M9 10.2667C6.61305 10.2667 4.32387 11.1166 2.63604 12.6294C0.948212 14.1422 0 16.194 0 18.3334V19.8001C0 20.3835 0.258603 20.9431 0.71892 21.3557C1.17924 21.7683 1.80356 22.0001 2.45455 22.0001H15.5455C16.1964 22.0001 16.8208 21.7683 17.2811 21.3557C17.7414 20.9431 18 20.3835 18 19.8001V18.3334C18 16.194 17.0518 14.1422 15.364 12.6294C13.6761 11.1166 11.3869 10.2667 9 10.2667Z" fill="#EB7F65"/>
<path d="M8.99991 8.8C11.7111 8.8 13.909 6.83005 13.909 4.4C13.909 1.96995 11.7111 0 8.99991 0C6.2887 0 4.09082 1.96995 4.09082 4.4C4.09082 6.83005 6.2887 8.8 8.99991 8.8Z" fill="#EB7F65"/>
<path d="M18 18.3333V19.8C18 20.3835 17.7414 20.9431 17.2811 21.3556C16.8208 21.7682 16.1964 22 15.5455 22H9V10.2667C11.3869 10.2667 13.6761 11.1165 15.364 12.6293C17.0518 14.1421 18 16.1939 18 18.3333ZM13.9091 4.4C13.9091 5.56695 13.3919 6.68611 12.4713 7.51127C11.5506 8.33643 10.302 8.8 9 8.8V0C10.302 0 11.5506 0.46357 12.4713 1.28873C13.3919 2.11389 13.9091 3.23305 13.9091 4.4Z" fill="#EB7F65"/>
</svg>
