<svg width="35" height="35" viewBox="0 0 35 35" fill="none" xmlns="http://www.w3.org/2000/svg">
<path d="M33.25 7.00193H24.5V4.07963C24.4589 2.95939 23.9754 1.90113 23.1553 1.13685C22.3351 0.372557 21.2454 -0.0353974 20.125 0.0024121H14.875C13.7546 -0.0353974 12.6649 0.372557 11.8448 1.13685C11.0246 1.90113 10.5411 2.95939 10.5 4.07963V7.00193H1.75C1.28587 7.00193 0.840752 7.18629 0.512563 7.51446C0.184374 7.84262 0 8.28771 0 8.75181C0 9.21591 0.184374 9.66099 0.512563 9.98916C0.840752 10.3173 1.28587 10.5017 1.75 10.5017H3.5V29.7504C3.5 31.1427 4.05312 32.4779 5.03769 33.4624C6.02226 34.4469 7.35761 35 8.75 35H26.25C27.6424 35 28.9777 34.4469 29.9623 33.4624C30.9469 32.4779 31.5 31.1427 31.5 29.7504V10.5017H33.25C33.7141 10.5017 34.1592 10.3173 34.4874 9.98916C34.8156 9.66099 35 9.21591 35 8.75181C35 8.28771 34.8156 7.84262 34.4874 7.51446C34.1592 7.18629 33.7141 7.00193 33.25 7.00193ZM14 4.07963C14 3.79965 14.3675 3.50217 14.875 3.50217H20.125C20.6325 3.50217 21 3.79965 21 4.07963V7.00193H14V4.07963Z" fill="#EB7F65"/>
</svg>
