<svg width="20" height="22" viewBox="0 0 20 22" fill="none" xmlns="http://www.w3.org/2000/svg">
<path d="M17.2727 5.27981H7.27273V4.3998C7.27322 3.87907 7.43263 3.37009 7.73094 2.93676C8.02924 2.50343 8.45315 2.16507 8.94944 1.96416C9.44572 1.76326 9.99227 1.70876 10.5204 1.80751C11.0486 1.90626 11.5349 2.15386 11.9182 2.51922C12.0867 2.68586 12.2333 2.87208 12.3545 3.07362C12.4735 3.27668 12.671 3.42566 12.9034 3.48779C13.1359 3.54993 13.3843 3.52013 13.5941 3.40495C13.8039 3.28977 13.9578 3.09864 14.0219 2.87362C14.0861 2.6486 14.0553 2.40811 13.9364 2.20505C13.7356 1.86907 13.4918 1.55891 13.2109 1.28192C12.5741 0.668522 11.764 0.251401 10.8826 0.0831716C10.0012 -0.0850573 9.08812 0.0031415 8.25846 0.336643C7.42881 0.670145 6.71976 1.23401 6.22075 1.95712C5.72175 2.68023 5.45514 3.53019 5.45455 4.3998V5.27981H2.72727C2.00418 5.28051 1.3109 5.55888 0.799597 6.05383C0.288291 6.54878 0.000722014 7.21987 0 7.91984V19.36C0.000722014 20.0599 0.288291 20.731 0.799597 21.226C1.3109 21.7209 2.00418 21.9993 2.72727 22H17.2727C17.9958 21.9993 18.6891 21.7209 19.2004 21.226C19.7117 20.731 19.9993 20.0599 20 19.36V7.91984C19.9993 7.21987 19.7117 6.54878 19.2004 6.05383C18.6891 5.55888 17.9958 5.28051 17.2727 5.27981ZM10.9091 14.798V16.7199C10.9091 16.9533 10.8133 17.1772 10.6428 17.3422C10.4723 17.5072 10.2411 17.5999 10 17.5999C9.75889 17.5999 9.52766 17.5072 9.35718 17.3422C9.18669 17.1772 9.09091 16.9533 9.09091 16.7199V14.798C8.48435 14.5904 7.97313 14.1819 7.64761 13.6448C7.32208 13.1076 7.20321 12.4763 7.312 11.8625C7.4208 11.2487 7.75025 10.6919 8.24213 10.2905C8.73401 9.88908 9.35665 9.66892 10 9.66892C10.6434 9.66892 11.266 9.88908 11.7579 10.2905C12.2498 10.6919 12.5792 11.2487 12.688 11.8625C12.7968 12.4763 12.6779 13.1076 12.3524 13.6448C12.0269 14.1819 11.5156 14.5904 10.9091 14.798ZM10.9091 12.3199C10.9091 12.4939 10.8558 12.6641 10.7559 12.8088C10.656 12.9535 10.514 13.0663 10.3479 13.1329C10.1818 13.1995 9.99899 13.2169 9.82265 13.183C9.6463 13.149 9.48431 13.0652 9.35718 12.9422C9.23004 12.8191 9.14345 12.6623 9.10838 12.4916C9.0733 12.3209 9.0913 12.1439 9.16011 11.9831C9.22892 11.8223 9.34544 11.6849 9.49494 11.5882C9.64443 11.4915 9.8202 11.4399 10 11.4399C10.2411 11.4399 10.4723 11.5326 10.6428 11.6976C10.8133 11.8627 10.9091 12.0865 10.9091 12.3199Z" fill="#EB7F65"/>
</svg>
