<svg width="35" height="40" viewBox="0 0 35 40" fill="none" xmlns="http://www.w3.org/2000/svg">
<path d="M19.8962 34.1701C20.9201 34.1994 21.9254 34.442 22.8432 34.8812H22.8985C23.6653 35.4889 23.7956 36.5737 23.1932 37.3346C22.0963 38.8594 20.3413 39.8209 18.4227 39.948C16.4514 40.1764 14.4663 39.6463 12.897 38.4724C12.0899 37.9348 11.5654 37.0845 11.4603 36.1435C11.4603 35.1479 12.4181 34.6856 13.3022 34.4901C14.3377 34.2782 15.3933 34.1709 16.4518 34.1701H19.8962ZM17.5754 0C23.9483 0 30.5239 4.48015 31.2054 10.9693C31.3159 12.3026 31.2054 13.6894 31.3159 15.0405C31.6775 16.7829 32.51 18.4021 33.7288 19.734C34.4866 20.8286 34.9255 22.0996 34.9999 23.4141V23.823C35.011 25.5968 34.3568 27.3145 33.1578 28.6588C31.6382 30.2371 29.5764 31.229 27.3559 31.45C20.7952 32.2677 14.1529 32.2677 7.59232 31.45C5.34563 31.2458 3.25479 30.2526 1.71668 28.6588C0.555321 27.3016 -0.05368 25.5824 0.00371685 23.823V23.4141C0.0755958 22.1046 0.501025 20.8359 1.23779 19.734C2.46205 18.4009 3.30623 16.7835 3.68751 15.0405C3.79802 13.6894 3.68751 12.3204 3.79802 10.9693C4.49794 4.48015 10.9446 0 17.3912 0H17.5754Z" fill="#FFFAF0"/>
</svg>
