<svg width="35" height="40" viewBox="0 0 35 40" fill="none" xmlns="http://www.w3.org/2000/svg">
<path d="M17.5 18.6667C12.8587 18.6667 8.40752 20.2119 5.12563 22.9624C1.84375 25.713 0 29.4435 0 33.3333V36C0 37.0609 0.50284 38.0783 1.3979 38.8284C2.29296 39.5786 3.50692 40 4.77273 40H30.2273C31.4931 40 32.707 39.5786 33.6021 38.8284C34.4972 38.0783 35 37.0609 35 36V33.3333C35 29.4435 33.1563 25.713 29.8744 22.9624C26.5925 20.2119 22.1413 18.6667 17.5 18.6667Z" fill="#FFFAF0"/>
<path d="M17.5 16C22.7719 16 27.0455 12.4183 27.0455 8C27.0455 3.58172 22.7719 0 17.5 0C12.2282 0 7.95459 3.58172 7.95459 8C7.95459 12.4183 12.2282 16 17.5 16Z" fill="#FFFAF0"/>
<path d="M35 33.3333V36C35 37.0609 34.4972 38.0783 33.6021 38.8284C32.707 39.5786 31.4931 40 30.2273 40H17.5V18.6667C22.1413 18.6667 26.5925 20.2119 29.8744 22.9624C33.1563 25.713 35 29.4435 35 33.3333ZM27.0455 8C27.0455 10.1217 26.0398 12.1566 24.2497 13.6569C22.4595 15.1571 20.0316 16 17.5 16V0C20.0316 0 22.4595 0.842855 24.2497 2.34315C26.0398 3.84344 27.0455 5.87827 27.0455 8Z" fill="#FFFAF0"/>
</svg>
