<svg width="50" height="50" viewBox="0 0 50 50" fill="none" xmlns="http://www.w3.org/2000/svg">
<path d="M25 0C11.2097 0 0 11.2097 0 25C0 38.7903 11.2097 50 25 50C38.7903 50 50 38.7903 50 25C50 11.2097 38.7903 0 25 0ZM22.5806 37.0968V35.3387C22.5806 33.9999 23.6613 32.9193 25 32.9193C26.3387 32.9193 27.4194 33.9999 27.4194 35.3387V37.0968C27.4194 38.4354 26.3387 39.5161 25 39.5161C23.6613 39.5161 22.5806 38.4354 22.5806 37.0968ZM27.4194 28.2903C27.4194 29.6129 26.3387 30.7096 25 30.7096C23.6613 30.7096 22.5806 29.6129 22.5806 28.2903V12.9032C22.5806 11.5645 23.6613 10.4839 25 10.4839C26.3387 10.4839 27.4194 11.5645 27.4194 12.9032V28.2903Z" fill="#FFF1F1"/>
</svg>
