<svg width="40" height="40" viewBox="0 0 40 40" fill="none" xmlns="http://www.w3.org/2000/svg">
<path d="M8.64 19.768H2.16C0.96 19.768 0 20.8817 0 22.2738V37.4942C0 38.8863 0.96 40 2.16 40H8.64C9.84 40 10.8 38.8863 10.8 37.4942V22.2738C10.8 20.8817 9.84 19.768 8.64 19.768ZM23.28 13.9211H16.8C15.6 13.9211 14.64 15.0348 14.64 16.4269V37.4942C14.64 38.8863 15.6 40 16.8 40H23.28C24.48 40 25.44 38.8863 25.44 37.4942V16.4269C25.36 15.0348 24.4 13.9211 23.28 13.9211ZM37.84 0H31.36C30.16 0 29.2 1.11369 29.2 2.5058V37.4942C29.2 38.8863 30.16 40 31.36 40H37.84C39.04 40 40 38.8863 40 37.4942V2.41299C40 1.11369 39.04 0 37.84 0Z" fill="#FFFAF0"/>
</svg>
