<svg width="40" height="40" viewBox="0 0 40 40" fill="none" xmlns="http://www.w3.org/2000/svg">
<path d="M38.6644 2.08353e-06H1.33333C0.595556 2.08353e-06 0 0.667502 0 1.5V7.5H40V1.5C40 1.30281 39.9654 1.10755 39.8983 0.925399C39.8312 0.743247 39.7327 0.577777 39.6087 0.438457C39.4846 0.299136 39.3374 0.188699 39.1754 0.113464C39.0134 0.0382294 38.8397 -0.000326572 38.6644 2.08353e-06ZM2.22222 36.5C2.22222 38.425 3.62 40 5.33111 40H34.6644C36.3756 40 37.7756 38.4225 37.7756 36.5V10H2.22222V36.5ZM13.3333 15H26.6667V20H13.3333V15Z" fill="#FFFAF0"/>
</svg>
