<svg width="25" height="25" viewBox="0 0 25 25" fill="none" xmlns="http://www.w3.org/2000/svg">
<path d="M23.7825 1.26684C23.0027 0.488902 21.9452 0.0518783 20.8426 0.0518783C19.74 0.0518783 18.6825 0.488902 17.9027 1.26684L12.526 6.63237L7.14931 1.26684C6.76572 0.870509 6.30688 0.554379 5.79955 0.336899C5.29222 0.119419 4.74657 0.00494463 4.19443 0.000156678C3.6423 -0.00463128 3.09473 0.100363 2.58369 0.309012C2.07265 0.517661 1.60837 0.825786 1.21794 1.21541C0.827504 1.60503 0.518737 2.06835 0.309654 2.57833C0.100571 3.08831 -0.00464091 3.63474 0.000157004 4.18573C0.00495492 4.73672 0.119667 5.28124 0.337599 5.78751C0.555531 6.29379 0.872319 6.75168 1.26948 7.13448L6.64408 12.5L1.26948 17.8655C0.872319 18.2483 0.555531 18.7062 0.337599 19.2125C0.119667 19.7188 0.00495492 20.2633 0.000157004 20.8143C-0.00464091 21.3653 0.100571 21.9117 0.309654 22.4217C0.518737 22.9316 0.827504 23.395 1.21794 23.7846C1.60837 24.1742 2.07265 24.4823 2.58369 24.691C3.09473 24.8996 3.6423 25.0046 4.19443 24.9998C4.74657 24.9951 5.29222 24.8806 5.79955 24.6631C6.30688 24.4456 6.76572 24.1295 7.14931 23.7332L12.526 18.3676L17.9027 23.7332C18.7135 24.5444 19.7781 24.949 20.8426 24.949C21.9071 24.949 22.9716 24.5444 23.7825 23.7332C24.5621 22.955 25 21.8997 25 20.7993C25 19.699 24.5621 18.6437 23.7825 17.8655L18.4079 12.5L23.7825 7.13448C24.5621 6.3563 25 5.301 25 4.20066C25 3.10032 24.5621 2.04502 23.7825 1.26684Z" fill="#D4E3DE"/>
</svg>
