<svg width="24" height="16" viewBox="0 0 24 16" fill="none" xmlns="http://www.w3.org/2000/svg">
<path d="M22.8851 3.0546L10.7318 15.2093C10.4317 15.5093 10.0248 15.6778 9.60059 15.6778C9.17634 15.6778 8.76946 15.5093 8.46942 15.2093L1.11601 7.85441C0.96746 7.70586 0.849626 7.52951 0.769233 7.33543C0.688839 7.14135 0.647461 6.93333 0.647461 6.72325C0.647461 6.29899 0.816002 5.8921 1.11601 5.5921C1.41601 5.2921 1.82291 5.12356 2.24718 5.12356C2.67145 5.12356 3.07835 5.2921 3.37835 5.5921L9.60059 11.8143L20.6227 0.790693C20.7714 0.642148 20.9478 0.524335 21.142 0.443983C21.3362 0.363631 21.5443 0.322314 21.7545 0.322388C21.9646 0.322462 22.1727 0.363928 22.3668 0.444417C22.5609 0.524906 22.7373 0.642842 22.8859 0.791493C23.0344 0.940143 23.1522 1.1166 23.2326 1.31078C23.3129 1.50496 23.3542 1.71306 23.3542 1.92321C23.3541 2.13336 23.3126 2.34144 23.2321 2.53556C23.1517 2.72969 23.0337 2.90606 22.8851 3.0546Z" fill="#F9F9F9"/>
</svg>
